# xmcd
#
# Track frame offsets: 
#        150
#        18845
#        37455
#        53320
#        69995
#        86735
#        103225
#        119542
#        138775
#        155820
#        172690
#        191542
#        208242
#        225342
#
# Disc length: 3242 seconds
#
# Revision: 0
# Processed by: cddbd v1.5.2PL0 Copyright (c) Steve Scherf et al.
# Submitted via: ExactAudioCopy v0.99pb5
#
DISCID=b80ca80e
DTITLE=Various Artist - 方季惟
DYEAR=1900
DGENRE=Vocal
TTITLE0=心痛不再有
TTITLE1=塵世舊夢
TTITLE2=沒有結局的遊戲
TTITLE3=我像個什麼
TTITLE4=陽光的金翅膀
TTITLE5=含淚\的眼
TTITLE6=最後一葉
TTITLE7=孤單並不是唯一
TTITLE8=情愫
TTITLE9=今夜想你親親
TTITLE10=悔
TTITLE11=兩個口袋
TTITLE12=這樣的來，這樣的去
TTITLE13=不必恨
EXTD=
EXTT0=
EXTT1=
EXTT2=
EXTT3=
EXTT4=
EXTT5=
EXTT6=
EXTT7=
EXTT8=
EXTT9=
EXTT10=
EXTT11=
EXTT12=
EXTT13=
PLAYORDER=
